<svg width="155px" height="155px" viewBox="0 0 155 155" version="1.1" xmlns="http://www.w3.org/2000/svg" xmlns:xlink="http://www.w3.org/1999/xlink">
    <!-- Generator: Sketch 49.3 (51167) - http://www.bohemiancoding.com/sketch -->
    <desc>Created with Sketch.</desc>
    <defs></defs>
    <g id="Page-1" stroke="none" stroke-width="1" fill="none" fill-rule="evenodd">
        <g id="Desktop-HD" transform="translate(-63.000000, -270.000000)" fill="#4D4D4D">
            <g id="iconmonstr-plus-circle-thin" transform="translate(63.000000, 270.000000)">
                <path d="M77.5,0 C120.273261,0 155,34.7267391 155,77.5 C155,120.273261 120.273261,155 77.5,155 C34.7267391,155 0,120.273261 0,77.5 C0,34.7267391 34.7267391,0 77.5,0 Z M77.5,6.73913043 C116.553261,6.73913043 148.26087,38.4467391 148.26087,77.5 C148.26087,116.553261 116.553261,148.26087 77.5,148.26087 C38.4467391,148.26087 6.73913043,116.553261 6.73913043,77.5 C6.73913043,38.4467391 38.4467391,6.73913043 77.5,6.73913043 Z M80.8695652,74.1304348 L121.304348,74.1304348 L121.304348,80.8695652 L80.8695652,80.8695652 L80.8695652,121.304348 L74.1304348,121.304348 L74.1304348,80.8695652 L33.6956522,80.8695652 L33.6956522,74.1304348 L74.1304348,74.1304348 L74.1304348,33.6956522 L80.8695652,33.6956522 L80.8695652,74.1304348 Z" id="Shape"></path>
            </g>
        </g>
    </g>
</svg>